<?xml version="1.0" encoding="utf-8"?>
<!-- Generator: Adobe Illustrator 25.4.1, SVG Export Plug-In . SVG Version: 6.00 Build 0)  -->
<svg version="1.1" id="Capa_1" xmlns="http://www.w3.org/2000/svg" xmlns:xlink="http://www.w3.org/1999/xlink" x="0px" y="0px" viewBox="0 0 500 192" style="enable-background:new 0 0 500 192;" xml:space="preserve">
<style type="text/css">
	.st0{fill:#CCF3EE;}
	.st1{clip-path:url(#SVGID_00000000928961134572551250000017415814449457681045_);}
	.st2{fill:#F9F3EE;}
	.st3{clip-path:url(#SVGID_00000036947699764100310940000012331602499965826208_);}
	.st4{fill:#F9CEEE;}
	.st5{fill:none;stroke:#000000;}
</style>
<path class="st0" d="M95.2,45.6c-17,21.4-23.1,58.1,0,82s61.5,14.5,88.6,18.8c27.1,4.3,60.5,4.3,67.3-33.3
	c6.9-37.6-9.4-47-55.7-73.5S127.8,4.6,95.2,45.6z"/>
<g>
	<g>
		<defs>
			<rect id="SVGID_1_" x="181.4" y="4.6" width="132" height="156"/>
		</defs>
		<clipPath id="SVGID_00000087373976231903589720000005839279360571001764_">
			<use xlink:href="#SVGID_1_"  style="overflow:visible;"/>
		</clipPath>
		<g style="clip-path:url(#SVGID_00000087373976231903589720000005839279360571001764_);">
			<path class="st2" d="M230.8,4.6c-17.6-0.5-43.6,14.4-48,34.9c-5.5,25.5,8.2,17.3,11.5,38.4c6.3,39.2,1.4,66.7,49.2,79.7
				C349.3,186.4,326.5,7.3,230.8,4.6z"/>
		</g>
	</g>
</g>
<g>
	<g>
		<defs>
			<rect id="SVGID_00000044166876386816880120000004185152745415418007_" x="293.5" y="4.6" width="122" height="156"/>
		</defs>
		<clipPath id="SVGID_00000067950279436204301320000007165121497609330621_">
			<use xlink:href="#SVGID_00000044166876386816880120000004185152745415418007_"  style="overflow:visible;"/>
		</clipPath>
		<g style="clip-path:url(#SVGID_00000067950279436204301320000007165121497609330621_);">
			<path class="st4" d="M298.1,35.9c-13.2,20.9,5.4,25.7,10.2,44.6c5.1,19.7-10.8,40,1.6,58.4c29.8,44.3,92,13.7,102.8-28.3
				c2.1-8.4,4.8-19.8,0-28c-6.2-10.9-20.3-7.6-23.9-12.9c-7.5-11,0.6-19.8-5.5-33.3c-4.1-9.1-14.7-2.2-19.4-6.5
				c-7.2-6.5-3.4-17.2-13.6-22.5C330.4-3.3,307.9,20.3,298.1,35.9z"/>
		</g>
	</g>
</g>
<path class="st5" d="M56.2,182.3h67"/>
<path class="st5" d="M365.9,181.3h67"/>
<g>
	<g transform="translate(56.920779, 206.277819)">
		<g>
			<path d="M26-94.2v-72.4h13.3v72.4C39.3-94.2,26-94.2,26-94.2z"/>
		</g>
	</g>
</g>
<g>
	<g transform="translate(73.436823, 206.277819)">
		<g>
			<path d="M31.2-94.2v-51.3h11.7l1,8.7c1.6-3,3.9-5.4,6.9-7.2s6.5-2.7,10.6-2.7c6.3,0,11.3,2,14.8,6s5.3,9.9,5.3,17.6v29H68.2
				v-27.7c0-4.4-0.9-7.8-2.7-10.1c-1.8-2.3-4.6-3.5-8.4-3.5c-3.7,0-6.8,1.3-9.1,3.9c-2.4,2.6-3.6,6.3-3.6,10.9v26.5L31.2-94.2
				L31.2-94.2z"/>
		</g>
	</g>
</g>
<g>
	<g transform="translate(116.627658, 206.277819)">
		<g>
			<path d="M45.6-94.2v-51.3h11.7l1.1,6.9c1.7-2.5,3.8-4.5,6.6-5.9c2.7-1.5,5.9-2.2,9.5-2.2c7.9,0,13.5,3.1,16.9,9.2
				c1.9-2.8,4.4-5.1,7.5-6.7c3.1-1.7,6.6-2.5,10.3-2.5c6.7,0,11.8,2,15.4,6c3.6,4,5.4,9.9,5.4,17.6v29h-13.2v-27.7
				c0-4.4-0.8-7.8-2.5-10.1s-4.3-3.5-7.8-3.5c-3.6,0-6.5,1.3-8.6,3.9c-2.2,2.6-3.3,6.3-3.3,10.9v26.5H81.2v-27.7
				c0-4.4-0.9-7.8-2.6-10.1s-4.4-3.5-8-3.5c-3.5,0-6.4,1.3-8.5,3.9c-2.2,2.6-3.2,6.3-3.2,10.9v26.5L45.6-94.2L45.6-94.2z"/>
		</g>
	</g>
</g>
<g>
	<g transform="translate(185.330142, 206.277819)">
		<g>
			<path d="M87.7-93c-6.4,0-11.4-2-14.9-6s-5.2-9.9-5.2-17.6v-29h13.1v27.7c0,4.4,0.9,7.8,2.7,10.1c1.8,2.3,4.6,3.5,8.5,3.5
				c3.7,0,6.7-1.3,9-3.9c2.4-2.6,3.6-6.3,3.6-11v-26.5h13.2v51.3H106l-1-8.7c-1.6,3-3.9,5.4-6.9,7.2C95.2-93.9,91.7-93,87.7-93z"/>
		</g>
	</g>
</g>
<g>
	<g transform="translate(228.520977, 206.277819)">
		<g>
			<path d="M82.9-94.2v-51.3h11.7l1,8.7c1.6-3,3.9-5.4,6.9-7.2s6.5-2.7,10.6-2.7c6.3,0,11.3,2,14.8,6c3.5,4,5.3,9.9,5.3,17.6v29H120
				v-27.7c0-4.4-0.9-7.8-2.7-10.1c-1.8-2.3-4.6-3.5-8.4-3.5c-3.7,0-6.8,1.3-9.1,3.9c-2.4,2.6-3.6,6.3-3.6,10.9v26.5L82.9-94.2
				L82.9-94.2z"/>
		</g>
	</g>
</g>
<g>
	<g transform="translate(271.711812, 206.277819)">
		<g>
			<path d="M122.2-93c-5.2,0-9.8-1.1-13.8-3.3c-4-2.2-7.1-5.3-9.4-9.3s-3.4-8.6-3.4-13.9s1.1-10,3.4-14.2c2.2-4.1,5.4-7.4,9.3-9.7
				c4-2.3,8.6-3.5,14-3.5c5,0,9.5,1.1,13.3,3.3c3.9,2.2,6.9,5.2,9,9c2.2,3.8,3.2,8.1,3.2,12.8c0,0.8,0,1.5,0,2.4
				c0,0.8-0.1,1.7-0.1,2.6h-39c0.3,4,1.7,7.1,4.2,9.4s5.6,3.4,9.2,3.4c2.7,0,4.9-0.6,6.8-1.8c1.8-1.2,3.2-2.8,4.1-4.7h13.4
				c-1,3.2-2.6,6.2-4.8,8.8c-2.2,2.7-5,4.7-8.3,6.3C130-93.8,126.3-93,122.2-93z M122.3-136c-3.2,0-6.1,0.9-8.6,2.8
				c-2.5,1.8-4.1,4.6-4.8,8.3h25.5c-0.2-3.4-1.5-6.1-3.7-8.1S125.7-136,122.3-136z"/>
		</g>
	</g>
</g>
<g>
	<g transform="translate(118.727791, 262.384934)">
		<g>
			<path d="M44.1-75.5c4,0,6.2-2.2,6.2-6s-2.2-6-6.2-6h-3.4v12H44.1z M42.6-85.9h1.5c2.6,0,4.4,1.2,4.4,4.4c0,3.4-1.9,4.3-4.4,4.3
				h-1.5V-85.9z"/>
		</g>
	</g>
</g>
<g>
	<g transform="translate(129.055877, 262.384934)">
		<g>
			<path d="M46-75.5v-12h-1.9v12H46z"/>
		</g>
	</g>
</g>
<g>
	<g transform="translate(133.913848, 262.384934)">
		<g>
			<path d="M50.3-75.4c2.8,0,4.3-1.4,4.3-3.6c0-2.7-2.3-3.2-4.2-3.6c-1.5-0.3-2.9-0.6-2.9-1.9c0-1,0.8-1.6,2.2-1.6
				c1.3,0,2.4,0.5,2.8,2h1.9c-0.4-2.5-2.4-3.6-4.6-3.6c-2.4,0-4.1,1.2-4.1,3.4c0,2.5,2.1,2.9,4,3.3c1.6,0.3,3.1,0.7,3.1,2.2
				c0,1.3-1,1.9-2.5,1.9c-1.4,0-2.8-0.5-3.2-2.3h-1.9C45.6-76.4,48-75.4,50.3-75.4z"/>
		</g>
	</g>
</g>
<g>
	<g transform="translate(143.71142, 262.384934)">
		<g>
			<path d="M56.9-75.5v-1.7h-6v-3.5h5.4v-1.7h-5.4v-3.5h6v-1.7H49v12L56.9-75.5L56.9-75.5z"/>
		</g>
	</g>
</g>
<g>
	<g transform="translate(152.719133, 262.384934)">
		<g>
			<path d="M57.8-88.4c1.1,0,1.7-0.8,1.7-2.4h-1.2c0,0.8-0.3,1.2-0.5,1.2c-0.6,0-0.9-1.2-2.2-1.2c-1.1,0-1.8,0.9-1.8,2.4H55
				c0-0.7,0.2-1.2,0.6-1.2C56.2-89.6,56.5-88.4,57.8-88.4z M53.9-75.5v-9.6l5.2,9.6h2.3v-12h-1.8v9.6l-5.2-9.6h-2.3v12H53.9z"/>
		</g>
	</g>
</g>
<g>
	<g transform="translate(163.176892, 262.384934)">
		<g>
			<path d="M60.8-75.4c3.9,0,5.7-2.9,5.7-6.2c0-3.3-1.8-6.2-5.7-6.2s-5.7,2.9-5.7,6.2S56.9-75.4,60.8-75.4z M60.8-77
				c-2.4,0-3.8-1.9-3.8-4.5s1.4-4.5,3.8-4.5c2.5,0,3.8,1.9,3.8,4.5S63.2-77,60.8-77z"/>
		</g>
	</g>
</g>
<g>
	<g transform="translate(174.507046, 262.384934)">
	</g>
</g>
<g>
	<g transform="translate(179.459339, 262.384934)">
		<g>
			<path d="M66.2-75.4c2.8,0,4.6-1.5,5-3.9h-2c-0.3,1.5-1.4,2.3-3,2.3c-2.4,0-3.7-1.9-3.7-4.5s1.3-4.5,3.7-4.5c1.6,0,2.7,0.8,3,2.1
				h2c-0.3-2.2-2.1-3.7-5-3.7c-3.9,0-5.7,2.9-5.7,6.2S62.3-75.4,66.2-75.4z"/>
		</g>
	</g>
</g>
<g>
	<g transform="translate(190.10572, 262.384934)">
		<g>
			<path d="M71.1-80.8c1.2-0.5,2-1.7,2-3.2c0-2.4-1.5-3.5-3.8-3.5h-4.8v12h1.9v-4.9h3l2,4.9h2L71.1-80.8z M66.4-85.9h2.7
				c1.4,0,2.2,0.7,2.2,1.9c0,1.2-0.8,1.9-2.2,1.9h-2.7V-85.9z"/>
		</g>
	</g>
</g>
<g>
	<g transform="translate(199.773619, 262.384934)">
		<g>
			<path d="M73-75.4c3.9,0,5.7-2.9,5.7-6.2c0-3.3-1.8-6.2-5.7-6.2c-3.9,0-5.7,2.9-5.7,6.2S69.1-75.4,73-75.4z M73-77
				c-2.4,0-3.8-1.9-3.8-4.5S70.6-86,73-86c2.5,0,3.8,1.9,3.8,4.5S75.4-77,73-77z"/>
		</g>
	</g>
</g>
<g>
	<g transform="translate(211.103773, 262.384934)">
		<g>
			<path d="M76.7-75.4c2.8,0,4.6-1.5,5-3.9h-2c-0.3,1.5-1.4,2.3-3,2.3c-2.4,0-3.7-1.9-3.7-4.5s1.3-4.5,3.7-4.5c1.6,0,2.7,0.8,3,2.1
				h2c-0.3-2.2-2.1-3.7-5-3.7c-3.9,0-5.7,2.9-5.7,6.2S72.9-75.4,76.7-75.4z"/>
		</g>
	</g>
</g>
<g>
	<g transform="translate(221.750153, 262.384934)">
		<g>
			<path d="M76.9-75.5v-5.2h5.6v5.2h1.9v-12h-1.9v5.1h-5.6v-5.1H75v12H76.9z"/>
		</g>
	</g>
</g>
<g>
	<g transform="translate(232.184338, 262.384934)">
		<g>
			<path d="M86.4-75.5v-1.7h-6v-3.5h5.4v-1.7h-5.4v-3.5h6v-1.7h-7.9v12L86.4-75.5L86.4-75.5z"/>
		</g>
	</g>
</g>
<g>
	<g transform="translate(241.19205, 262.384934)">
		<g>
			<path d="M86.3-75.5v-10.3h3.9v-1.7h-9.6v1.7h3.9v10.3H86.3z"/>
		</g>
	</g>
</g>
</svg>
